<svg width="94" height="17" viewBox="0 0 94 17" fill="none" xmlns="http://www.w3.org/2000/svg">
<g clip-path="url(#clip0_518_343)">
<path d="M1.00402 15.06L6.74402 14.24L6.68402 12.6L0.744019 8.22002L1.34402 6.82002L8.50402 5.52002L8.76402 7.14002L3.18402 8.12002L8.32402 11.76L8.46402 15.6L1.24402 16.62L1.00402 15.06Z" fill="white"/>
<path d="M13.3534 16.3601L11.6134 16.4201L11.2334 0.680118L12.9734 0.620117L13.2134 10.8201L17.6934 5.58012L18.9734 6.78012L15.3334 10.8201L19.9534 15.1801L18.6734 16.4801L13.2334 11.0201L13.3534 16.3601Z" fill="white"/>
<path d="M21.7404 1.66016H24.0604V3.98016H21.7404V1.66016ZM22.0204 5.80016H23.7604V16.4201H22.0204V5.80016Z" fill="white"/>
<path d="M27.0966 0.700195H28.8566L29.0566 16.4202H27.2966L27.0966 0.700195Z" fill="white"/>
<path d="M32.3123 1.72021H34.1323L34.4723 14.6202L43.3723 13.9802L43.4523 15.6802L32.6923 16.4402L32.3123 1.72021Z" fill="white"/>
<path d="M45.1592 5.20002L46.9792 4.92002L48.1392 14.6L54.4592 14.46L54.9392 3.68002L44.8392 3.70002L44.9192 2.04002L56.8592 2.02002L56.1992 16.06L46.4992 16.32L45.1592 5.20002Z" fill="white"/>
<path d="M58.7871 2.26L60.4471 1.64L65.8271 14.12L71.0671 1.5L72.8671 2.18L66.7071 16.46H64.8471L58.7871 2.26Z" fill="white"/>
<path d="M73.7886 2.19998L85.3286 1.47998L85.4286 3.13998L73.8885 3.87998L73.7886 2.19998ZM75.0885 4.73998H76.9085L76.8686 14.62L85.4485 13.5L85.6285 15.2L75.0086 16.5L75.0885 4.73998ZM77.8686 7.65998L83.5686 7.25998L83.6886 8.91998L77.9885 9.37998L77.8686 7.65998Z" fill="white"/>
<path d="M89.327 7.8001L92.687 5.6001L93.627 7.0401L90.307 9.2401L89.327 7.8001ZM87.347 5.7001L89.087 5.6401L89.467 16.4201L87.727 16.4801L87.347 5.7001Z" fill="white"/>
</g>
<defs>
<clipPath id="clip0_518_343">
<rect width="94" height="17" fill="white"/>
</clipPath>
</defs>
</svg>
